PathFileType	4	(X/Y/Z)	Walk7.trc
DataRate	CameraRate	NumFrames	NumMarkers	Units	OrigDataRate	OrigDataStartFrame	OrigNumFrames
200.000000	200.000000	5	71	mm	200.000000	403	658
Frame#	Times		T10		RPSI		LowerBodyModelVer		RTH4		RElbow		C7		LBHD		LToe		LMT5		RBHD		RBack		LMT1		LTB1		LWRU		LLMAL		LTB3		RTH2		RUA1		LElbowM		LTB4		LLFC		LTB2		LTH3		RLFC		LACR1		RTB2		RTH3		RMFC		RKJC		RTB3		LASI		LElbow		LUA1		RTB1		RToe		LMFC		LKJC		RFA1		RWRU		RCAR		RMT1		RTB4		RWRR		RCAL		RMT5		RMMAL		RLMAL		LFHD		RFHD		LPSI		SACR		LCAR		LMMAL		LTH4		LCAL		RASI		LTH1		LHJC		MidPelvis		OPelvis		PELOrigin		RHJC		XPelvis		YPelvis		ZPelvis		LWRR		LTH2		RTH1		RACR1		RElbowM		STRN
			X1	Y1	Z1	X2	Y2	Z2	X3	Y3	Z3	X4	Y4	Z4	X5	Y5	Z5	X6	Y6	Z6	X7	Y7	Z7	X8	Y8	Z8	X9	Y9	Z9	X10	Y10	Z10	X11	Y11	Z11	X12	Y12	Z12	X13	Y13	Z13	X14	Y14	Z14	X15	Y15	Z15	X16	Y16	Z16	X17	Y17	Z17	X18	Y18	Z18	X19	Y19	Z19	X20	Y20	Z20	X21	Y21	Z21	X22	Y22	Z22	X23	Y23	Z23	X24	Y24	Z24	X25	Y25	Z25	X26	Y26	Z26	X27	Y27	Z27	X28	Y28	Z28	X29	Y29	Z29	X30	Y30	Z30	X31	Y31	Z31	X32	Y32	Z32	X33	Y33	Z33	X34	Y34	Z34	X35	Y35	Z35	X36	Y36	Z36	X37	Y37	Z37	X38	Y38	Z38	X39	Y39	Z39	X40	Y40	Z40	X41	Y41	Z41	X42	Y42	Z42	X43	Y43	Z43	X44	Y44	Z44	X45	Y45	Z45	X46	Y46	Z46	X47	Y47	Z47	X48	Y48	Z48	X49	Y49	Z49	X50	Y50	Z50	X51	Y51	Z51	X52	Y52	Z52	X53	Y53	Z53	X54	Y54	Z54	X55	Y55	Z55	X56	Y56	Z56	X57	Y57	Z57	X58	Y58	Z58	X59	Y59	Z59	X60	Y60	Z60	X61	Y61	Z61	X62	Y62	Z62	X63	Y63	Z63	X64	Y64	Z64	X65	Y65	Z65	X66	Y66	Z66	X67	Y67	Z67	X68	Y68	Z68	X69	Y69	Z69	X70	Y70	Z70	X71	Y71	Z71

403	2.015	-397.36	1227	-41.931	-414.94	1039.8	-3.2659	9	2014	4	-172.32	678.48	139.51	-385.73	1096	162.04	-314.84	1481.8	-42.006	-277.08	1613.5	-99.84	-181.61	27.421	-88.856	-274.97	22.265	-147.21	-276.88	1605.7	36.849	-348.08	1369.5	107.69	-236.91	29.592	-62.646	-264.35	379.54	-67.35	-125.9	824	-318.18	-389.64	59.79	-118.16	-317.03	202.02	-65.358	-119.74	705.12	94.881	-267.77	1244.9	201.73	-293.77	1058.8	-262.01	-292.03	290.75	-65.252	-288.45	511.29	-152.87	-292.74	290.41	-137.45	-271.77	575.08	-161.36	-126.69	546.77	120.22	-220.92	1417.1	-207.24	-110.82	311.83	113.91	-141.17	591.62	123.18	-143.87	505.8	-3.8062	-135.28	526.29	58.207	-105.5	222.37	40.607	-216.46	1030.8	-186.15	-249.03	1077.5	-332.33	-228.16	1214.9	-288.89	-79.884	406.94	44.949	38.69	68.76	103.73	-308.24	492.25	-26.101	-298.35	501.77	-89.485	-327.18	930.32	240.29	-311.42	811.56	205.67	-246.41	789.31	236.43	-4.7478	56.256	59.062	-92.087	310.29	40.952	-233.59	837.74	190.78	-205.68	42.757	22.206	-51.671	48.188	125.96	-125.73	92.223	13.631	-164.29	87.223	88.611	-98.733	1640.2	-68.15	-98.617	1635.5	13.863	-409.52	1040.7	-71.545	-412.23	1040.3	-37.405	-52.276	829.23	-302.76	-367.98	66.388	-34.825	-266.22	667.34	-182.05	-455.01	34.727	-69.813	-229.8	994	125.38	-261.97	758.8	-199.95	-305.32	936.8	-150.44	-317.68	1026.3	-33.896	-223.13	1012.4	-30.387	-223.13	1012.4	-30.387	-314.39	911.76	61.401	-143.99	1000.9	-28.363	-211.92	1091	-20.614	-226.53	1003	48.988	-74.375	866.8	-266.45	-207.11	670.34	-138.78	-213.27	765.49	149.6	-215.68	1420.5	117.62	-353.14	1090.6	240.69	-113.09	1231	-39.506
404	2.02	-392.5	1226.5	-41.624	-409.93	1039.3	-2.9557	9	2014	4	-167.96	677.87	139.76	-381.18	1095.6	162.07	-310	1481.4	-41.99	-272.41	1613.1	-99.576	-181.31	27.014	-88.82	-274.9	22.255	-147.17	-272.09	1605.2	37.03	-343.37	1369.1	107.74	-236.91	29.593	-62.683	-263.28	378.95	-67.031	-117.77	824.64	-318.25	-389.57	59.842	-118.07	-316.07	201.83	-65.355	-115.3	704.44	94.378	-263.21	1244.4	201.77	-287.34	1058.1	-262.74	-290.87	290.52	-65.169	-286.2	510.9	-152.69	-291.82	289.97	-137.7	-269.16	574.77	-161.35	-122.56	546.16	119.94	-216.25	1416.6	-207.14	-100.85	311.37	114.1	-136.39	590.99	123.02	-139.34	504.36	-3.8259	-130.95	525.26	58.057	-92.762	221.85	41.198	-211.12	1030.8	-186.48	-242.39	1077.2	-332.77	-222.41	1214.9	-288.75	-72.681	407.12	45.026	55.714	70.64	104.66	-306.5	491.98	-25.925	-296.35	501.44	-89.306	-322.99	929.93	240.1	-307.33	811.2	205.58	-241.95	788.78	236.25	12.617	57.786	59.801	-81.964	310.3	41.182	-229.3	837.4	190.67	-188.16	40.082	22.49	-34.349	47.788	126.72	-109.33	91.326	14.321	-147.85	85.297	89.18	-93.903	1639.5	-68.064	-93.707	1634.8	13.9	-404.91	1040.2	-71.285	-407.42	1039.7	-37.121	-44.365	830.18	-302.26	-368.18	66.267	-34.511	-262.82	666.62	-181.75	-454.91	34.772	-69.715	-224.94	993.21	125.63	-258.36	758.55	-199.86	-300.17	936.44	-151.02	-312.72	1025.9	-33.772	-218.03	1012	-30.423	-218.03	1012	-30.423	-309.57	910.89	61.217	-138.89	1000.5	-28.305	-206.87	1090.6	-20.468	-221.54	1002.4	48.926	-66.82	867.53	-266.08	-203.92	669.71	-138.72	-208.57	764.88	150	-210.87	1419.7	117.69	-348.65	1090.1	240.71	-108.36	1230.5	-39.344
405	2.025	-387.63	1226	-41.339	-405.37	1038.8	-2.7221	9	2014	4	-163.37	676.96	139.82	-376.72	1095.2	161.85	-305.29	1480.7	-41.908	-267.69	1612.5	-99.398	-181.25	26.719	-88.845	-274.91	22.26	-147.2	-267.56	1604.7	37.139	-338.74	1368.8	107.64	-236.91	29.594	-62.685	-261.77	378.53	-66.985	-109.71	824.96	-318.14	-389.49	59.751	-118.15	-315.12	201.53	-65.174	-111.19	703.49	94.22	-258.63	1243.9	201.85	-280.9	1057.4	-263.39	-289.61	290.1	-65.029	-284	510.53	-152.87	-290.34	289.32	-137.62	-266.71	574.24	-161.13	-118.73	545.42	119.99	-211.55	1416.3	-206.86	-91.294	310.96	114.62	-132.07	590.24	123.08	-134.91	502.88	-3.8819	-126.82	524.15	58.053	-80.09	221.62	41.806	-206.07	1029.9	-187.15	-235.94	1076.9	-332.94	-216.9	1214.4	-288.96	-65.334	407.4	45.311	72.473	72.785	105.54	-304.46	491.66	-25.817	-294.23	501.1	-89.345	-318.68	929.61	239.95	-302.96	810.56	205.41	-237.41	788.3	236.02	29.703	59.318	60.461	-71.831	310.46	41.676	-224.81	836.95	190.49	-170.64	37.652	22.853	-17.019	48.053	127.51	-92.934	90.406	15.323	-131.9	84.639	91.058	-89.105	1639.2	-67.646	-89.027	1634.5	14.276	-400.14	1039.6	-71.097	-402.76	1039.2	-36.91	-36.577	831.01	-301.65	-368.1	66.238	-34.472	-259.79	666.51	-181.93	-454.94	34.814	-69.617	-220.17	992.46	125.64	-254.39	758.05	-199.68	-295.46	935.53	-151.62	-307.94	1025.2	-33.834	-213.12	1011.2	-30.758	-213.12	1011.2	-30.758	-305.04	910.05	61.076	-134	999.57	-28.585	-201.85	1089.8	-20.837	-216.7	1001.7	48.595	-59.372	868.3	-265.79	-200.92	669.08	-138.48	-203.79	764.35	150.02	-206.23	1419.2	117.83	-344.21	1089.8	240.54	-103.56	1229.9	-39.331
406	2.03	-382.82	1225.6	-41.109	-400.34	1038.1	-2.4625	9	2014	4	-158.88	676.36	139.69	-372.01	1094.7	161.89	-300.64	1480.3	-41.788	-262.83	1612.1	-99.261	-181.14	26.374	-88.853	-274.93	22.112	-147.11	-262.86	1604	37.509	-333.82	1368	107.88	-236.87	29.556	-62.599	-260.29	378	-66.919	-101.78	825.55	-317.9	-389.43	59.778	-118.04	-314.65	201.24	-65.02	-106.75	702.4	93.883	-253.72	1243.5	201.76	-274.53	1056.6	-263.87	-288.55	289.54	-65.002	-281.87	510.02	-152.85	-289.37	288.96	-137.16	-264.1	573.79	-161.01	-114.84	544.3	120	-206.85	1415.7	-206.65	-81.637	310.78	115.05	-128.21	589.34	122.95	-130.4	501.53	-3.9708	-122.62	522.92	58.015	-67.534	221.39	42.623	-199.95	1029.9	-187.43	-229.3	1076.6	-333.37	-211.33	1214.1	-289	-58.311	407.76	45.41	89.114	75.252	105.99	-302.55	491.45	-25.97	-292.21	500.73	-89.412	-314.36	929.05	239.85	-298.37	809.84	205.55	-233.2	787.89	235.94	46.738	60.952	61.062	-61.893	310.53	42.268	-220.25	836.25	190.57	-153.31	35.729	23.448	0.67376	50.037	128.3	-76.821	89.909	16.209	-116.17	81.831	90.784	-84.468	1638.8	-67.243	-84.486	1633.9	14.819	-395.46	1039	-70.542	-397.9	1038.6	-36.502	-28.716	831.77	-301.14	-367.87	66.189	-34.438	-256.9	666.3	-182.03	-454.88	34.892	-69.496	-215.15	991.7	125.74	-250.7	757.56	-199.67	-289.49	935.22	-152.37	-302.72	1024.7	-33.673	-207.55	1010.8	-30.844	-207.55	1010.8	-30.844	-299.83	909.21	60.581	-128.42	999.27	-28.414	-196.39	1089.4	-20.708	-211.4	1001.1	48.474	-52.064	869.06	-265.39	-198.03	668.18	-138.18	-199.05	763.72	150.19	-201.52	1418.8	118.02	-339.69	1089.3	240.74	-98.532	1229.3	-39.336
407	2.035	-378.15	1225.2	-40.911	-395.38	1037.6	-2.2639	9	2014	4	-154.53	675.29	139.71	-367.35	1094.4	161.94	-295.88	1479.7	-41.75	-258.11	1611.6	-98.851	-181.11	26.078	-89.007	-274.91	22.081	-147.09	-257.84	1603.4	37.566	-329.1	1367.4	108.18	-236.82	29.512	-62.548	-258.54	377.69	-67.1	-93.83	825.72	-317.87	-389.38	59.939	-117.83	-314.3	200.71	-64.692	-102.48	701.52	93.606	-249.04	1242.7	201.85	-268.17	1055.9	-264.37	-287.48	289.32	-65.102	-279.67	509.59	-152.65	-288.09	288.87	-137.2	-261.26	573.38	-160.98	-110.71	543.07	119.86	-201.94	1415.2	-206.53	-72.098	310.68	115.38	-124.52	588.03	123.03	-126.05	500.22	-4.2312	-118.38	521.65	57.815	-55.241	221.4	43.323	-194.76	1030	-187.63	-222.82	1076.3	-333.68	-205.35	1213.8	-289.03	-51.256	408.07	45.771	105.68	77.795	106.55	-300.7	491.45	-26.18	-290.18	500.52	-89.417	-309.75	928.55	239.83	-294.01	809.42	205.47	-229.15	787.33	235.88	63.416	62.846	61.541	-51.794	310.32	43.268	-216.06	835.66	190.74	-136.06	33.94	24.305	17.996	50.851	128.88	-60.757	89.81	16.92	-99.908	79.54	90.742	-79.729	1638.2	-67.095	-79.565	1633.2	14.755	-390.94	1038.4	-70.275	-393.16	1038	-36.27	-20.96	832.63	-300.49	-367.68	66.138	-34.371	-253.7	665.78	-181.96	-454.84	35.026	-69.417	-210.38	990.82	125.89	-246.87	757.15	-199.61	-284.43	934.94	-152.89	-297.86	1024.2	-33.571	-202.57	1010.4	-30.872	-202.57	1010.4	-30.872	-295.05	908.33	60.304	-123.44	998.87	-28.368	-191.47	1088.9	-20.515	-206.52	1000.5	48.415	-44.868	869.67	-264.92	-194.91	667.44	-137.84	-194.44	762.9	150.17	-196.7	1418.4	118.21	-335.15	1088.8	240.61	-93.443	1228.8	-39.389
